<svg xmlns="http://www.w3.org/2000/svg" width="1200" height="600" viewBox="0 0 1200 600" fill="none"><g stroke="#5bd616" stroke-opacity=".16" stroke-width="2"><path d="M0 90h200l55 55h180l70-70h220l55 55h420"/><path d="M0 310h130l60-60h220l95 95h180l80-80h435"/><path d="M0 520h230l50-50h170l60 60h250l65-65h375"/></g><g fill="#fff" stroke="#5bd616" stroke-opacity=".35" stroke-width="2"><circle cx="200" cy="90" r="6"/><circle cx="435" cy="145" r="6"/><circle cx="725" cy="75" r="6"/><circle cx="190" cy="250" r="6"/><circle cx="505" cy="345" r="6"/><circle cx="765" cy="265" r="6"/><circle cx="280" cy="470" r="6"/><circle cx="510" cy="530" r="6"/><circle cx="825" cy="465" r="6"/></g></svg>